<svg width="24" height="26" viewBox="0 0 24 26" fill="none" xmlns="http://www.w3.org/2000/svg">
<path d="M12.793 19.0555L15.6015 11.6843H19.8142L12.793 19.0555Z" fill="#F7C206"/>
<path d="M9.75037 11.6842L12.0908 17.6287L13.9631 11.6842H9.75037Z" fill="#F7C206"/>
<path d="M11.1546 19.0555L8.34611 11.6843H4.13335L11.1546 19.0555Z" fill="#F7C206"/>
<path d="M4.13338 10.4953L5.77168 7.1664L8.34615 10.4953H4.13338Z" fill="#F7C206"/>
<path d="M6.94185 6.45311L9.04823 9.30649L11.1546 6.45311H6.94185Z" fill="#F7C206"/>
<path d="M9.75037 10.4953L11.8567 7.64197L13.9631 10.4953H9.75037Z" fill="#F7C206"/>
<path d="M12.5589 6.45311L14.6653 9.30649L16.7717 6.45311H12.5589Z" fill="#F7C206"/>
<path d="M15.3674 10.4953L17.9419 7.1664L19.5802 10.4953H15.3674Z" fill="#F7C206"/>
<path d="M12.793 19.0555L12.5126 18.9487C12.4618 19.0822 12.5121 19.2331 12.633 19.3093C12.7538 19.3855 12.9117 19.3659 13.0102 19.2624L12.793 19.0555ZM15.6015 11.6843V11.3843C15.477 11.3843 15.3655 11.4612 15.3211 11.5775L15.6015 11.6843ZM19.8142 11.6843L20.0315 11.8912C20.1142 11.8043 20.1373 11.6765 20.09 11.5661C20.0427 11.4558 19.9343 11.3843 19.8142 11.3843V11.6843ZM11.1546 19.0555L10.9374 19.2624C11.0359 19.3659 11.1938 19.3855 11.3146 19.3093C11.4355 19.2331 11.4858 19.0822 11.435 18.9487L11.1546 19.0555ZM8.34611 11.6843L8.62645 11.5775C8.58214 11.4612 8.47059 11.3843 8.34611 11.3843V11.6843ZM4.13335 11.6843V11.3843C4.01333 11.3843 3.90487 11.4558 3.8576 11.5661C3.81033 11.6765 3.83335 11.8043 3.91612 11.8912L4.13335 11.6843ZM15.3674 10.4953L15.1301 10.3118C15.0601 10.4023 15.0477 10.5248 15.0981 10.6275C15.1486 10.7302 15.253 10.7953 15.3674 10.7953V10.4953ZM17.9419 7.1664L18.2111 7.03394C18.1654 6.94105 18.075 6.8783 17.972 6.86792C17.869 6.85753 17.7679 6.90099 17.7046 6.98288L17.9419 7.1664ZM19.5802 10.4953V10.7953C19.6838 10.7953 19.7801 10.7419 19.8349 10.6539C19.8897 10.5659 19.8951 10.4559 19.8494 10.3629L19.5802 10.4953ZM12.5589 6.45311V6.15311C12.4457 6.15311 12.3421 6.21686 12.2911 6.31793C12.2401 6.41901 12.2503 6.54019 12.3176 6.63129L12.5589 6.45311ZM14.6653 9.30649L14.424 9.48466C14.4805 9.56128 14.5701 9.60649 14.6653 9.60649C14.7605 9.60649 14.8501 9.56128 14.9067 9.48466L14.6653 9.30649ZM16.7717 6.45311L17.0131 6.63129C17.0803 6.54019 17.0905 6.41901 17.0395 6.31793C16.9885 6.21686 16.8849 6.15311 16.7717 6.15311V6.45311ZM6.94185 6.45311V6.15311C6.82863 6.15311 6.72505 6.21686 6.67403 6.31793C6.62301 6.41901 6.63325 6.54019 6.70049 6.63129L6.94185 6.45311ZM9.04823 9.30649L8.80687 9.48466C8.86343 9.56128 8.953 9.60649 9.04823 9.60649C9.14346 9.60649 9.23304 9.56128 9.28959 9.48466L9.04823 9.30649ZM11.1546 6.45311L11.396 6.63129C11.4632 6.54019 11.4735 6.41901 11.4224 6.31793C11.3714 6.21686 11.2678 6.15311 11.1546 6.15311V6.45311ZM9.75037 10.4953L9.50901 10.3172C9.44176 10.4083 9.43153 10.5295 9.48255 10.6305C9.53357 10.7316 9.63714 10.7953 9.75037 10.7953V10.4953ZM11.8567 7.64197L12.0981 7.46379C12.0416 7.38718 11.952 7.34197 11.8567 7.34197C11.7615 7.34197 11.6719 7.38718 11.6154 7.46379L11.8567 7.64197ZM13.9631 10.4953V10.7953C14.0764 10.7953 14.1799 10.7316 14.2309 10.6305C14.282 10.5295 14.2717 10.4083 14.2045 10.3172L13.9631 10.4953ZM9.75037 11.6842V11.3842C9.65111 11.3842 9.55827 11.4333 9.5024 11.5153C9.44653 11.5974 9.43486 11.7017 9.47122 11.7941L9.75037 11.6842ZM12.0908 17.6287L11.8116 17.7386C11.8582 17.8569 11.9743 17.933 12.1013 17.9285C12.2283 17.9241 12.3387 17.8401 12.3769 17.7188L12.0908 17.6287ZM13.9631 11.6842L14.2493 11.7743C14.278 11.6832 14.2616 11.5838 14.205 11.5067C14.1485 11.4297 14.0587 11.3842 13.9631 11.3842V11.6842ZM4.13338 10.4953L3.86421 10.3629C3.81845 10.4559 3.82392 10.5659 3.87868 10.6539C3.93345 10.7419 4.02974 10.7953 4.13338 10.7953V10.4953ZM5.77168 7.1664L6.00899 6.98288C5.94566 6.90099 5.84459 6.85753 5.74159 6.86792C5.63859 6.8783 5.54822 6.94105 5.50251 7.03394L5.77168 7.1664ZM8.34615 10.4953V10.7953C8.46058 10.7953 8.56504 10.7302 8.61546 10.6275C8.66588 10.5248 8.65346 10.4023 8.58346 10.3118L8.34615 10.4953ZM11.5568 2.90225C11.5568 3.06794 11.6911 3.20225 11.8567 3.20225C12.0224 3.20225 12.1567 3.06794 12.1567 2.90225H11.5568ZM12.1567 1C12.1567 0.834315 12.0224 0.7 11.8567 0.7C11.6911 0.7 11.5568 0.834315 11.5568 1H12.1567ZM21.4728 5.29148C21.3565 5.40956 21.358 5.59951 21.4761 5.71573C21.5942 5.83196 21.7841 5.83045 21.9004 5.71237L21.4728 5.29148ZM23.3046 4.28568C23.4209 4.1676 23.4193 3.97765 23.3013 3.86143C23.1832 3.7452 22.9932 3.74671 22.877 3.86479L23.3046 4.28568ZM2.28127 5.71237C2.39749 5.83045 2.58744 5.83196 2.70552 5.71573C2.8236 5.5995 2.82511 5.40956 2.70888 5.29148L2.28127 5.71237ZM1.30463 3.86479C1.1884 3.74671 0.998458 3.7452 0.880376 3.86143C0.762294 3.97765 0.760789 4.1676 0.877014 4.28568L1.30463 3.86479ZM5.51739 19.2659C5.63362 19.1478 5.63211 18.9579 5.51403 18.8417C5.39595 18.7254 5.20601 18.7269 5.08978 18.845L5.51739 19.2659ZM3.68552 20.2717C3.5693 20.3898 3.5708 20.5797 3.68889 20.696C3.80697 20.8122 3.99691 20.8107 4.11314 20.6926L3.68552 20.2717ZM19.0919 18.845C18.9756 18.7269 18.7857 18.7254 18.6676 18.8417C18.5495 18.9579 18.548 19.1478 18.6642 19.2659L19.0919 18.845ZM20.0685 20.6926C20.1847 20.8107 20.3747 20.8122 20.4928 20.696C20.6108 20.5797 20.6123 20.3898 20.4961 20.2717L20.0685 20.6926ZM12.3908 22.86C12.3908 22.6943 12.2565 22.56 12.0908 22.56C11.9251 22.56 11.7908 22.6943 11.7908 22.86H12.3908ZM11.7908 25C11.7908 25.1657 11.9251 25.3 12.0908 25.3C12.2565 25.3 12.3908 25.1657 12.3908 25H11.7908ZM13.0733 19.1623L15.8818 11.7911L15.3211 11.5775L12.5126 18.9487L13.0733 19.1623ZM15.6015 11.9843H19.8142V11.3843H15.6015V11.9843ZM19.597 11.4774L12.5757 18.8486L13.0102 19.2624L20.0315 11.8912L19.597 11.4774ZM11.435 18.9487L8.62645 11.5775L8.06577 11.7911L10.8743 19.1623L11.435 18.9487ZM8.34611 11.3843H4.13335V11.9843H8.34611V11.3843ZM3.91612 11.8912L10.9374 19.2624L11.3719 18.8486L4.35057 11.4774L3.91612 11.8912ZM15.6048 10.6789L18.1792 7.34993L17.7046 6.98288L15.1301 10.3118L15.6048 10.6789ZM17.6727 7.29887L19.311 10.6278L19.8494 10.3629L18.2111 7.03394L17.6727 7.29887ZM19.5802 10.1953H15.3674V10.7953H19.5802V10.1953ZM12.3176 6.63129L14.424 9.48466L14.9067 9.12831L12.8003 6.27494L12.3176 6.63129ZM14.9067 9.48466L17.0131 6.63129L16.5303 6.27494L14.424 9.12831L14.9067 9.48466ZM16.7717 6.15311H12.5589V6.75311H16.7717V6.15311ZM6.70049 6.63129L8.80687 9.48466L9.28959 9.12831L7.18321 6.27494L6.70049 6.63129ZM9.28959 9.48466L11.396 6.63129L10.9133 6.27494L8.80687 9.12831L9.28959 9.48466ZM11.1546 6.15311H6.94185V6.75311H11.1546V6.15311ZM9.99172 10.6735L12.0981 7.82014L11.6154 7.46379L9.50901 10.3172L9.99172 10.6735ZM11.6154 7.82014L13.7218 10.6735L14.2045 10.3172L12.0981 7.46379L11.6154 7.82014ZM13.9631 10.1953H9.75037V10.7953H13.9631V10.1953ZM9.47122 11.7941L11.8116 17.7386L12.3699 17.5188L10.0295 11.5743L9.47122 11.7941ZM12.3769 17.7188L14.2493 11.7743L13.677 11.5941L11.8046 17.5386L12.3769 17.7188ZM13.9631 11.3842H9.75037V11.9842H13.9631V11.3842ZM4.40255 10.6278L6.04085 7.29887L5.50251 7.03394L3.86421 10.3629L4.40255 10.6278ZM5.53436 7.34993L8.10883 10.6789L8.58346 10.3118L6.00899 6.98288L5.53436 7.34993ZM8.34615 10.1953H4.13338V10.7953H8.34615V10.1953ZM12.1567 2.90225V1H11.5568V2.90225H12.1567ZM21.9004 5.71237L23.3046 4.28568L22.877 3.86479L21.4728 5.29148L21.9004 5.71237ZM2.70888 5.29148L1.30463 3.86479L0.877014 4.28568L2.28127 5.71237L2.70888 5.29148ZM5.08978 18.845L3.68552 20.2717L4.11314 20.6926L5.51739 19.2659L5.08978 18.845ZM18.6642 19.2659L20.0685 20.6926L20.4961 20.2717L19.0919 18.845L18.6642 19.2659ZM11.7908 22.86V25H12.3908V22.86H11.7908Z" fill="#F7C206"/>
</svg>
